<svg width="45" height="46" viewBox="0 0 45 46" fill="none" xmlns="http://www.w3.org/2000/svg">
<rect width="45" height="45" rx="4" fill="white"/>
<path d="M31.7681 5.57074L30.7705 17.6014L26.5963 13.178L31.7681 5.57074Z" fill="url(#paint0_linear_2_14)"/>
<path d="M37.9465 34.2767L26.331 33.5473L31.0352 13.9409L37.9465 34.2767Z" fill="url(#paint1_linear_2_14)"/>
<path d="M6.15095 11.798L15.8476 27.4259L31.3841 20.9448L6.15095 11.798Z" fill="url(#paint2_linear_2_14)"/>
<path d="M16.7241 41.358L10.7316 23.8838L26.331 33.5473L16.7241 41.358Z" fill="url(#paint3_linear_2_14)"/>
<path d="M31.0634 22.7095C29.9643 28.3648 27.8123 39.4381 18.7483 30.9426C13.0459 29.8344 9.31414 24.3515 10.4132 18.6962C11.5123 13.041 17.026 9.35491 22.7283 10.4631C28.4307 11.5714 32.1625 17.0543 31.0634 22.7095Z" fill="url(#paint4_linear_2_14)"/>
<path d="M19.0631 19.4683C18.7997 20.8237 17.4874 21.7089 16.1321 21.4455C14.7767 21.1821 13.8915 19.8698 14.1549 18.5145C14.4183 17.1591 15.7306 16.2739 17.0859 16.5373C18.4413 16.8007 19.3265 18.113 19.0631 19.4683Z" fill="white"/>
<path d="M19.0631 19.4683C18.7997 20.8237 17.4874 21.7089 16.1321 21.4455C14.7767 21.1821 13.8915 19.8698 14.1549 18.5145C14.4183 17.1591 15.7306 16.2739 17.0859 16.5373C18.4413 16.8007 19.3265 18.113 19.0631 19.4683Z" fill="white"/>
<path d="M19.0631 19.4683C18.7997 20.8237 17.4874 21.7089 16.1321 21.4455C14.7767 21.1821 13.8915 19.8698 14.1549 18.5145C14.4183 17.1591 15.7306 16.2739 17.0859 16.5373C18.4413 16.8007 19.3265 18.113 19.0631 19.4683Z" fill="white"/>
<path d="M19.0631 19.4683C18.7997 20.8237 17.4874 21.7089 16.1321 21.4455C14.7767 21.1821 13.8915 19.8698 14.1549 18.5145C14.4183 17.1591 15.7306 16.2739 17.0859 16.5373C18.4413 16.8007 19.3265 18.113 19.0631 19.4683Z" fill="white"/>
<path d="M27.485 17.6583C27.2216 19.0136 25.9094 19.8988 24.554 19.6354C23.1986 19.372 22.3135 18.0597 22.5769 16.7044C22.8403 15.349 24.1525 14.4638 25.5079 14.7272C26.8632 14.9907 27.7484 16.3029 27.485 17.6583Z" fill="white"/>
<path d="M27.485 17.6583C27.2216 19.0136 25.9094 19.8988 24.554 19.6354C23.1986 19.372 22.3135 18.0597 22.5769 16.7044C22.8403 15.349 24.1525 14.4638 25.5079 14.7272C26.8632 14.9907 27.7484 16.3029 27.485 17.6583Z" fill="white"/>
<path d="M27.485 17.6583C27.2216 19.0136 25.9094 19.8988 24.554 19.6354C23.1986 19.372 22.3135 18.0597 22.5769 16.7044C22.8403 15.349 24.1525 14.4638 25.5079 14.7272C26.8632 14.9907 27.7484 16.3029 27.485 17.6583Z" fill="white"/>
<path d="M27.485 17.6583C27.2216 19.0136 25.9094 19.8988 24.554 19.6354C23.1986 19.372 22.3135 18.0597 22.5769 16.7044C22.8403 15.349 24.1525 14.4638 25.5079 14.7272C26.8632 14.9907 27.7484 16.3029 27.485 17.6583Z" fill="white"/>
<defs>
<linearGradient id="paint0_linear_2_14" x1="28.9731" y1="7.06495" x2="4.68375" y2="40.2422" gradientUnits="userSpaceOnUse">
<stop stop-color="#555555"/>
<stop offset="1" stop-color="#FF5ADB"/>
</linearGradient>
<linearGradient id="paint1_linear_2_14" x1="28.9731" y1="7.06495" x2="4.68375" y2="40.2422" gradientUnits="userSpaceOnUse">
<stop stop-color="#555555"/>
<stop offset="1" stop-color="#FF5ADB"/>
</linearGradient>
<linearGradient id="paint2_linear_2_14" x1="28.9731" y1="7.06495" x2="4.68375" y2="40.2422" gradientUnits="userSpaceOnUse">
<stop stop-color="#555555"/>
<stop offset="1" stop-color="#FF5ADB"/>
</linearGradient>
<linearGradient id="paint3_linear_2_14" x1="28.9731" y1="7.06495" x2="4.68375" y2="40.2422" gradientUnits="userSpaceOnUse">
<stop stop-color="#555555"/>
<stop offset="1" stop-color="#FF5ADB"/>
</linearGradient>
<linearGradient id="paint4_linear_2_14" x1="28.9731" y1="7.06495" x2="4.68375" y2="40.2422" gradientUnits="userSpaceOnUse">
<stop stop-color="#555555"/>
<stop offset="1" stop-color="#FF5ADB"/>
</linearGradient>
</defs>
</svg>
